<mxfile host="Electron" modified="2024-03-03T12:50:26.077Z" agent="Mozilla/5.0 (Windows NT 10.0; Win64; x64) AppleWebKit/537.36 (KHTML, like Gecko) draw.io/23.1.5 Chrome/120.0.6099.109 Electron/28.1.0 Safari/537.36" etag="lSq_a7amM6tmbTf-uDnH" version="23.1.5" type="device">
  <diagram name="Page-1" id="SiCAJTOR_ieeBHqCmR3E">
    <mxGraphModel dx="1687" dy="1005" grid="0" gridSize="10" guides="1" tooltips="1" connect="1" arrows="1" fold="1" page="1" pageScale="1" pageWidth="850" pageHeight="1100" math="0" shadow="0">
      <root>
        <mxCell id="0" />
        <mxCell id="1" parent="0" />
        <mxCell id="5CxXZ3swcdRJ600K8378-13" style="edgeStyle=orthogonalEdgeStyle;rounded=0;orthogonalLoop=1;jettySize=auto;html=1;exitX=0.5;exitY=1;exitDx=0;exitDy=0;exitPerimeter=0;" edge="1" parent="1" source="5CxXZ3swcdRJ600K8378-2" target="5CxXZ3swcdRJ600K8378-4">
          <mxGeometry relative="1" as="geometry" />
        </mxCell>
        <mxCell id="5CxXZ3swcdRJ600K8378-2" value="Codecommit repository" style="outlineConnect=0;dashed=0;verticalLabelPosition=bottom;verticalAlign=top;align=center;html=1;shape=mxgraph.aws3.codecommit;fillColor=#759C3E;gradientColor=none;" vertex="1" parent="1">
          <mxGeometry x="356.75" y="200" width="76.5" height="93" as="geometry" />
        </mxCell>
        <mxCell id="5CxXZ3swcdRJ600K8378-12" style="edgeStyle=orthogonalEdgeStyle;rounded=0;orthogonalLoop=1;jettySize=auto;html=1;exitX=0.5;exitY=1;exitDx=0;exitDy=0;" edge="1" parent="1" source="5CxXZ3swcdRJ600K8378-3" target="5CxXZ3swcdRJ600K8378-2">
          <mxGeometry relative="1" as="geometry" />
        </mxCell>
        <mxCell id="5CxXZ3swcdRJ600K8378-3" value="" style="shape=image;verticalLabelPosition=bottom;labelBackgroundColor=default;verticalAlign=top;aspect=fixed;imageAspect=0;image=https://logos-marques.com/wp-content/uploads/2023/09/Gitlab-Logo.jpg;" vertex="1" parent="1">
          <mxGeometry x="320" y="40.000000000000014" width="150" height="84.38" as="geometry" />
        </mxCell>
        <mxCell id="5CxXZ3swcdRJ600K8378-7" style="edgeStyle=orthogonalEdgeStyle;rounded=0;orthogonalLoop=1;jettySize=auto;html=1;exitX=0.5;exitY=1;exitDx=0;exitDy=0;exitPerimeter=0;" edge="1" parent="1" source="5CxXZ3swcdRJ600K8378-4" target="5CxXZ3swcdRJ600K8378-6">
          <mxGeometry relative="1" as="geometry" />
        </mxCell>
        <mxCell id="5CxXZ3swcdRJ600K8378-4" value="Codepipeline" style="outlineConnect=0;dashed=0;verticalLabelPosition=bottom;verticalAlign=top;align=center;html=1;shape=mxgraph.aws3.codepipeline;fillColor=#759C3E;gradientColor=none;" vertex="1" parent="1">
          <mxGeometry x="361.25" y="380" width="67.5" height="81" as="geometry" />
        </mxCell>
        <mxCell id="5CxXZ3swcdRJ600K8378-5" value="S3 build bucket" style="outlineConnect=0;dashed=0;verticalLabelPosition=bottom;verticalAlign=top;align=center;html=1;shape=mxgraph.aws3.s3;fillColor=#E05243;gradientColor=none;" vertex="1" parent="1">
          <mxGeometry x="180" y="580" width="76.5" height="93" as="geometry" />
        </mxCell>
        <mxCell id="5CxXZ3swcdRJ600K8378-14" style="edgeStyle=orthogonalEdgeStyle;rounded=0;orthogonalLoop=1;jettySize=auto;html=1;exitX=0;exitY=0.5;exitDx=0;exitDy=0;exitPerimeter=0;strokeColor=default;dashed=1;endArrow=none;endFill=0;" edge="1" parent="1" source="5CxXZ3swcdRJ600K8378-6" target="5CxXZ3swcdRJ600K8378-5">
          <mxGeometry relative="1" as="geometry" />
        </mxCell>
        <mxCell id="5CxXZ3swcdRJ600K8378-6" value="Codebuild project" style="outlineConnect=0;dashed=0;verticalLabelPosition=bottom;verticalAlign=top;align=center;html=1;shape=mxgraph.aws3.codebuild;fillColor=#759C3E;gradientColor=none;" vertex="1" parent="1">
          <mxGeometry x="356.75" y="580" width="76.5" height="93" as="geometry" />
        </mxCell>
        <mxCell id="5CxXZ3swcdRJ600K8378-16" style="edgeStyle=orthogonalEdgeStyle;rounded=0;orthogonalLoop=1;jettySize=auto;html=1;exitX=0.5;exitY=1;exitDx=0;exitDy=0;exitPerimeter=0;" edge="1" parent="1" source="5CxXZ3swcdRJ600K8378-8" target="5CxXZ3swcdRJ600K8378-10">
          <mxGeometry relative="1" as="geometry">
            <Array as="points">
              <mxPoint x="395" y="920" />
              <mxPoint x="278" y="920" />
            </Array>
          </mxGeometry>
        </mxCell>
        <mxCell id="5CxXZ3swcdRJ600K8378-18" style="edgeStyle=orthogonalEdgeStyle;rounded=0;orthogonalLoop=1;jettySize=auto;html=1;exitX=0.5;exitY=1;exitDx=0;exitDy=0;exitPerimeter=0;" edge="1" parent="1" source="5CxXZ3swcdRJ600K8378-8" target="5CxXZ3swcdRJ600K8378-11">
          <mxGeometry relative="1" as="geometry">
            <Array as="points">
              <mxPoint x="395" y="920" />
              <mxPoint x="450" y="920" />
            </Array>
          </mxGeometry>
        </mxCell>
        <mxCell id="5CxXZ3swcdRJ600K8378-8" value="Cloudformation" style="outlineConnect=0;dashed=0;verticalLabelPosition=bottom;verticalAlign=top;align=center;html=1;shape=mxgraph.aws3.cloudformation;fillColor=#759C3E;gradientColor=none;" vertex="1" parent="1">
          <mxGeometry x="356.75" y="770" width="76.5" height="93" as="geometry" />
        </mxCell>
        <mxCell id="5CxXZ3swcdRJ600K8378-9" style="edgeStyle=orthogonalEdgeStyle;rounded=0;orthogonalLoop=1;jettySize=auto;html=1;exitX=0.5;exitY=1;exitDx=0;exitDy=0;exitPerimeter=0;entryX=0.5;entryY=0;entryDx=0;entryDy=0;entryPerimeter=0;" edge="1" parent="1" source="5CxXZ3swcdRJ600K8378-6" target="5CxXZ3swcdRJ600K8378-8">
          <mxGeometry relative="1" as="geometry" />
        </mxCell>
        <mxCell id="5CxXZ3swcdRJ600K8378-10" value="Lambda" style="outlineConnect=0;dashed=0;verticalLabelPosition=bottom;verticalAlign=top;align=center;html=1;shape=mxgraph.aws3.lambda;fillColor=#F58534;gradientColor=none;" vertex="1" parent="1">
          <mxGeometry x="240" y="960" width="76.5" height="93" as="geometry" />
        </mxCell>
        <mxCell id="5CxXZ3swcdRJ600K8378-11" value="Lambda IAM" style="outlineConnect=0;dashed=0;verticalLabelPosition=bottom;verticalAlign=top;align=center;html=1;shape=mxgraph.aws3.iam;fillColor=#759C3E;gradientColor=none;" vertex="1" parent="1">
          <mxGeometry x="428.75" y="966" width="42" height="81" as="geometry" />
        </mxCell>
        <mxCell id="5CxXZ3swcdRJ600K8378-19" style="edgeStyle=orthogonalEdgeStyle;rounded=0;orthogonalLoop=1;jettySize=auto;html=1;strokeColor=default;dashed=1;endArrow=none;endFill=0;entryX=1;entryY=0.5;entryDx=0;entryDy=0;entryPerimeter=0;" edge="1" parent="1" source="5CxXZ3swcdRJ600K8378-11" target="5CxXZ3swcdRJ600K8378-10">
          <mxGeometry relative="1" as="geometry">
            <mxPoint x="367" y="637" as="sourcePoint" />
            <mxPoint x="267" y="637" as="targetPoint" />
          </mxGeometry>
        </mxCell>
        <mxCell id="5CxXZ3swcdRJ600K8378-20" value="buildspec.yml" style="verticalLabelPosition=bottom;html=1;verticalAlign=top;align=center;strokeColor=none;fillColor=#00BEF2;shape=mxgraph.azure.cloud_services_configuration_file;pointerEvents=1;" vertex="1" parent="1">
          <mxGeometry x="470" y="601.5" width="47.5" height="50" as="geometry" />
        </mxCell>
        <mxCell id="5CxXZ3swcdRJ600K8378-21" value="template.yml" style="verticalLabelPosition=bottom;html=1;verticalAlign=top;align=center;strokeColor=none;fillColor=#00BEF2;shape=mxgraph.azure.cloud_services_configuration_file;pointerEvents=1;" vertex="1" parent="1">
          <mxGeometry x="470" y="800" width="47.5" height="50" as="geometry" />
        </mxCell>
      </root>
    </mxGraphModel>
  </diagram>
</mxfile>
